<svg width="16" height="16" viewBox="0 0 16 16" fill="none" xmlns="http://www.w3.org/2000/svg">
<path d="M14.25 3.53125H11.5622C11.4487 2.66679 11.0248 1.87308 10.3694 1.29807C9.714 0.723073 8.87188 0.406021 8 0.406021C7.12812 0.406021 6.286 0.723073 5.6306 1.29807C4.9752 1.87308 4.55127 2.66679 4.43781 3.53125H1.75C1.46002 3.53158 1.18201 3.64692 0.976967 3.85197C0.771921 4.05702 0.656581 4.33502 0.65625 4.625V14.625C0.656581 14.915 0.771921 15.193 0.976967 15.398C1.18201 15.6031 1.46002 15.7184 1.75 15.7188H14.25C14.54 15.7184 14.818 15.6031 15.023 15.398C15.2281 15.193 15.3434 14.915 15.3438 14.625V4.625C15.3434 4.33502 15.2281 4.05702 15.023 3.85197C14.818 3.64692 14.54 3.53158 14.25 3.53125ZM8 1.34375C8.62289 1.34462 9.22571 1.56406 9.7034 1.96381C10.1811 2.36356 10.5033 2.91827 10.614 3.53125H5.38602C5.49666 2.91827 5.81891 2.36356 6.2966 1.96381C6.77429 1.56406 7.37711 1.34462 8 1.34375ZM14.4062 14.625C14.4062 14.6664 14.3897 14.7061 14.3604 14.7354C14.3311 14.7647 14.2914 14.7812 14.25 14.7813H1.75C1.70858 14.7812 1.66887 14.7647 1.63958 14.7354C1.61029 14.7061 1.59381 14.6664 1.59375 14.625V4.625C1.59381 4.58358 1.61029 4.54387 1.63958 4.51458C1.66887 4.4853 1.70858 4.46881 1.75 4.46875H14.25C14.2914 4.46881 14.3311 4.4853 14.3604 4.51458C14.3897 4.54387 14.4062 4.58358 14.4062 4.625V14.625Z" fill="white"/>
</svg>
