<?xml version="1.0" encoding="utf-8"?>
<!-- Generator: Adobe Illustrator 16.0.0, SVG Export Plug-In . SVG Version: 6.00 Build 0)  -->
<!DOCTYPE svg PUBLIC "-//W3C//DTD SVG 1.1//EN" "http://www.w3.org/Graphics/SVG/1.1/DTD/svg11.dtd">
<svg version="1.1" id="Layer_1" xmlns="http://www.w3.org/2000/svg" xmlns:xlink="http://www.w3.org/1999/xlink" x="0px" y="0px"
	 width="13.666px" height="14.023px" viewBox="0 0 13.666 14.023" enable-background="new 0 0 13.666 14.023" xml:space="preserve">
<g>
	<g>
		<path fill="#FFFFFF" d="M13.623,12.994L8.901,8.183C9.563,7.321,9.958,6.24,9.958,5.067C9.958,2.274,7.726,0,4.979,0
			C2.233,0,0,2.274,0,5.067c0,2.794,2.233,5.065,4.979,5.065c1.077,0,2.074-0.351,2.89-0.944l4.729,4.82
			C12.739,14.153,13.901,13.279,13.623,12.994z M4.979,8.849c-2.04,0-3.7-1.697-3.7-3.781c0-2.085,1.66-3.779,3.7-3.779
			s3.7,1.694,3.7,3.779C8.679,7.151,7.019,8.849,4.979,8.849z"/>
	</g>
</g>
</svg>
