<?xml version="1.0" encoding="utf-8"?>
<!-- Generator: Adobe Illustrator 16.0.0, SVG Export Plug-In . SVG Version: 6.00 Build 0)  -->
<!DOCTYPE svg PUBLIC "-//W3C//DTD SVG 1.1//EN" "http://www.w3.org/Graphics/SVG/1.1/DTD/svg11.dtd">
<svg version="1.1" id="Layer_1" xmlns="http://www.w3.org/2000/svg" xmlns:xlink="http://www.w3.org/1999/xlink" x="0px" y="0px"
	 width="23.744px" height="23.662px" viewBox="0 0 23.744 23.662" enable-background="new 0 0 23.744 23.662" xml:space="preserve">
<g>
	<g>
		<path fill="#FFFFFF" d="M22.362,20.752l-7.001-7.137c0.981-1.273,1.565-2.878,1.565-4.615c0-4.141-3.31-7.511-7.381-7.511
			c-4.071,0-7.381,3.37-7.381,7.511c0,4.141,3.311,7.51,7.384,7.51c1.595,0,3.073-0.519,4.282-1.4l7.014,7.147
			C21.051,22.469,22.774,21.174,22.362,20.752z M9.547,14.604c-3.025,0-5.486-2.515-5.486-5.604c0-3.092,2.461-5.606,5.486-5.606
			c3.023,0,5.483,2.514,5.483,5.606C15.03,12.089,12.57,14.604,9.547,14.604z"/>
	</g>
</g>
</svg>
